<?xml version="1.0" encoding="UTF-8"?>
<svg id="Capa_1" data-name="Capa 1" xmlns="http://www.w3.org/2000/svg" viewBox="0 0 1790.88 826.98">
  <defs>
    <style>
      .cls-1 {
        fill: #68318a; /* Color original */
        stroke-width: 0px;
      }
      .cls-1-shadow {
        filter: url(#shadow);
      }
    </style>
    <filter id="shadow" x="-10%" y="-10%" width="120%" height="120%">
      <feDropShadow dx="20" dy="10" stdDeviation="25" flood-color="#8a4cb2" flood-opacity="0.5"/>
    </filter>
  </defs>
  <g class="cls-1-shadow">
    <path class="cls-1" d="m1342.96,429.02l-116.72-202.15-291.26,512.73-145.64-13.99L1134.31,118.33c15.55-27.37,41.08-48.02,71.47-56.18s65.92-5.29,100.04,32.06c7.51,8.22,13.95,17.36,19.52,27l68.37,118.41c38.28,66.31,15.55,151.12-50.75,189.4Z"/>
    <path class="cls-1" d="m1237.27,456.49l116.72,202.15,291.26-512.73,145.64,13.99-344.96,607.28c-15.55,27.37-41.08,48.02-71.47,56.18-29.33,7.87-65.92,5.29-100.04-32.06-7.51-8.22-13.95-17.36-19.52-27l-68.37-118.41c-38.28-66.31-15.55-151.12,50.75-189.4Z"/>
  </g>
  <path class="cls-1-shadow cls-1" d="m192.61,486.17l266.58,153.91c7.46,4.31,16.99,1.75,21.3-5.71l153.91-266.58c4.31-7.46,1.75-16.99-5.71-21.3l-49.4-28.52c-7.46-4.31-16.99-1.75-21.3,5.71l-103.96,180.07h0c-64.7-37.35-86.87-120.08-49.51-184.78l103.96-180.07c4.31-7.46,13.84-10.01,21.3-5.71l283.71,163.8c7.46,4.31,10.01,13.84,5.71,21.3l-289.19,500.89c-4.31,7.46-13.84,10.01-21.3,5.71L7.8,535.69c-7.46-4.31-10.01-13.84-5.71-21.3L299.08,0h0c64.71,37.36,86.88,120.1,49.52,184.81l-161.7,280.07c-4.31,7.46-1.75,16.99,5.71,21.3Z"/>
</svg>
